<svg width="41" height="40" viewBox="0 0 41 40" fill="none" xmlns="http://www.w3.org/2000/svg">
<path fill-rule="evenodd" clip-rule="evenodd" d="M20.1421 0C18.4852 0 17.1421 1.34315 17.1421 3V17H3.14209C1.48524 17 0.14209 18.3431 0.14209 20C0.14209 21.6569 1.48524 23 3.14209 23H17.1421V37C17.1421 38.6569 18.4852 40 20.1421 40C21.7989 40 23.1421 38.6569 23.1421 37V23H37.1421C38.7989 23 40.1421 21.6569 40.1421 20C40.1421 18.3431 38.7989 17 37.1421 17H23.1421V3C23.1421 1.34315 21.7989 0 20.1421 0Z" fill="#A3A3A3"/>
</svg>
