<svg width="27" height="30" viewBox="0 0 27 30" fill="none" xmlns="http://www.w3.org/2000/svg">
<path fill-rule="evenodd" clip-rule="evenodd" d="M13.6143 26.1137C20.6239 26.1137 26.3062 20.4314 26.3062 13.4218C26.3062 6.41223 20.6239 0.729858 13.6143 0.729858C6.60474 0.729858 0.922363 6.41223 0.922363 13.4218C0.922363 16.3524 1.91563 19.051 3.58388 21.1994L1.76677 29.5767L9.08198 25.2806C10.4896 25.8188 12.0175 26.1137 13.6143 26.1137ZM18.0843 10.6998C19.049 11.6856 19.049 13.2838 18.0843 14.2695L13.6181 18.8332L13.6099 18.8248L13.6009 18.834L9.14905 14.285C8.18158 13.2964 8.18159 11.6935 9.14905 10.705C10.1165 9.71636 11.6851 9.71636 12.6526 10.705L13.6192 11.6927L14.5908 10.6998C15.5555 9.71405 17.1196 9.71405 18.0843 10.6998Z" fill="white"/>
</svg>
