<svg width="38" height="43" viewBox="0 0 38 43" fill="none" xmlns="http://www.w3.org/2000/svg">
<path fill-rule="evenodd" clip-rule="evenodd" d="M37.1421 18.5C37.1421 28.7173 28.8594 37 18.6421 37C16.3146 37 14.0876 36.5702 12.0359 35.7856L1.42111 42.0196C1.41068 42.0021 1.40052 41.9843 1.39062 41.9664L4.02162 29.8368C1.58991 26.7053 0.14209 22.7718 0.14209 18.5C0.14209 8.28273 8.42482 0 18.6421 0C28.8594 0 37.1421 8.28273 37.1421 18.5ZM11.1421 18.5C11.1421 19.8807 10.0228 21 8.64209 21C7.26138 21 6.14209 19.8807 6.14209 18.5C6.14209 17.1193 7.26138 16 8.64209 16C10.0228 16 11.1421 17.1193 11.1421 18.5ZM18.6421 21C20.0228 21 21.1421 19.8807 21.1421 18.5C21.1421 17.1193 20.0228 16 18.6421 16C17.2614 16 16.1421 17.1193 16.1421 18.5C16.1421 19.8807 17.2614 21 18.6421 21ZM31.1421 18.5C31.1421 19.8807 30.0228 21 28.6421 21C27.2614 21 26.1421 19.8807 26.1421 18.5C26.1421 17.1193 27.2614 16 28.6421 16C30.0228 16 31.1421 17.1193 31.1421 18.5Z" fill="#A3A3A3"/>
</svg>
