<svg width="42" height="42" viewBox="0 0 42 42" fill="none" xmlns="http://www.w3.org/2000/svg">
<path fill-rule="evenodd" clip-rule="evenodd" d="M25.8255 32.8965C23.3497 34.2382 20.5138 35 17.5 35C7.83502 35 0 27.165 0 17.5C0 7.83502 7.83502 0 17.5 0C27.165 0 35 7.83502 35 17.5C35 20.5138 34.2382 23.3496 32.8966 25.8255L39.6776 32.6065C41.6302 34.5592 41.6302 37.725 39.6776 39.6776C37.725 41.6302 34.5592 41.6302 32.6066 39.6776L25.8255 32.8965ZM27 18C27 23.5228 22.5228 28 17 28C11.4772 28 7 23.5228 7 18C7 12.4772 11.4772 8 17 8C22.5228 8 27 12.4772 27 18Z" fill="#A3A3A3"/>
</svg>
