<svg width="23" height="23" viewBox="0 0 23 23" fill="none" xmlns="http://www.w3.org/2000/svg">
<path fill-rule="evenodd" clip-rule="evenodd" d="M19.7188 13.0469C18.4443 13.0469 17.4112 14.08 17.4112 15.3545V18.239H4.71931V15.3545C4.71931 14.08 3.68615 13.0469 2.41169 13.0469C1.13722 13.0469 0.104063 14.08 0.104063 15.3545V20.5299L0.104004 20.5466C0.104004 21.4042 0.571759 22.1525 1.26604 22.5503C1.60361 22.7437 1.99474 22.8543 2.41169 22.8543L2.42423 22.8543H19.7082C19.7117 22.8543 19.7153 22.8543 19.7188 22.8543C20.1967 22.8543 20.6407 22.709 21.009 22.4602C21.6078 22.0556 22.0065 21.3774 22.0257 20.605C22.0262 20.5856 22.0264 20.5661 22.0264 20.5466C22.0264 20.5438 22.0264 20.541 22.0264 20.5382V15.3545C22.0264 14.08 20.9933 13.0469 19.7188 13.0469Z" fill="#FDFDFD"/>
<path fill-rule="evenodd" clip-rule="evenodd" d="M4.99326 8.5486C5.78179 9.33713 7.06026 9.33713 7.8488 8.5486L8.75767 7.63972V13.0468C8.75767 14.3213 9.79083 15.3545 11.0653 15.3545C12.3398 15.3545 13.3729 14.3213 13.3729 13.0468V7.82571L14.0958 8.54861C14.8844 9.33714 16.1628 9.33714 16.9514 8.54861C17.7399 7.76007 17.7399 6.4816 16.9514 5.69307L12.4641 1.20579C12.0536 0.795286 11.5103 0.598487 10.9725 0.615393C10.4345 0.598396 9.89112 0.795192 9.48053 1.20578L4.99326 5.69306C4.20472 6.48159 4.20472 7.76006 4.99326 8.5486Z" fill="#FDFDFD"/>
</svg>
